<mxfile host="app.diagrams.net" agent="5.0" version="24.7.17">
  <diagram name="Class Diagram" id="class-diagram-clean">
    <mxGraphModel dx="1662" dy="1020" grid="1" gridSize="10" guides="1" tooltips="1" connect="1" arrows="1" fold="1" page="1" pageScale="1" pageWidth="1400" pageHeight="2000" math="0" shadow="0">
      <root>
        <mxCell id="0" />
        <mxCell id="1" parent="0" />
        
        <!-- Title -->
        <mxCell id="title" value="Class Diagram - DSA Visualizer Platform" style="text;html=1;align=center;verticalAlign=middle;whiteSpace=wrap;rounded=0;fontSize=18;fontStyle=1" vertex="1" parent="1">
          <mxGeometry x="400" y="30" width="600" height="30" as="geometry" />
        </mxCell>

        <!-- USER HIERARCHY (Top Left) -->
        <mxCell id="user" value="&lt;&lt;abstract&gt;&gt;&#xa;User&#xa;────────────────&#xa;- id: String&#xa;- email: String&#xa;- password: String&#xa;- role: UserRole&#xa;- createdAt: Date&#xa;────────────────&#xa;+ authenticate(): Boolean&#xa;+ updateProfile(): void&#xa;+ logout(): void&#xa;+ getRole(): UserRole" style="whiteSpace=wrap;html=1;fontSize=10;fillColor=#e1d5e7;strokeColor=#9673a6;align=left;verticalAlign=top;fontStyle=1" vertex="1" parent="1">
          <mxGeometry x="80" y="120" width="200" height="160" as="geometry" />
        </mxCell>

        <mxCell id="student" value="Student&#xa;────────────────&#xa;- studentId: String&#xa;- level: Level&#xa;- achievements: List&lt;String&gt;&#xa;- enrolledCourses: List&lt;String&gt;&#xa;────────────────&#xa;+ viewProgress(): Progress&#xa;+ joinDiscussion(id: String): void&#xa;+ submitExercise(solution: String): void&#xa;+ trackPerformance(): Report" style="whiteSpace=wrap;html=1;fontSize=10;fillColor=#d5e8d4;strokeColor=#82b366;align=left;verticalAlign=top" vertex="1" parent="1">
          <mxGeometry x="40" y="340" width="160" height="150" as="geometry" />
        </mxCell>

        <mxCell id="teacher" value="Teacher&#xa;────────────────&#xa;- teacherId: String&#xa;- department: String&#xa;- courses: List&lt;String&gt;&#xa;────────────────&#xa;+ createAssignment(): Assignment&#xa;+ monitorStudent(id: String): Progress&#xa;+ gradeSubmission(): Grade&#xa;+ generateReport(): Report" style="whiteSpace=wrap;html=1;fontSize=10;fillColor=#d5e8d4;strokeColor=#82b366;align=left;verticalAlign=top" vertex="1" parent="1">
          <mxGeometry x="220" y="340" width="160" height="140" as="geometry" />
        </mxCell>

        <!-- ALGORITHM HIERARCHY (Top Center) -->
        <mxCell id="algorithm" value="&lt;&lt;abstract&gt;&gt;&#xa;Algorithm&#xa;────────────────&#xa;- id: String&#xa;- name: String&#xa;- category: Category&#xa;- complexity: Complexity&#xa;- description: String&#xa;- codeTemplate: Map&lt;Language, String&gt;&#xa;────────────────&#xa;+ execute(): void&#xa;+ getSteps(): List&lt;Step&gt;&#xa;+ reset(): void&#xa;+ getComplexity(): String" style="whiteSpace=wrap;html=1;fontSize=10;fillColor=#fff2cc;strokeColor=#d6b656;align=left;verticalAlign=top;fontStyle=1" vertex="1" parent="1">
          <mxGeometry x="450" y="120" width="220" height="180" as="geometry" />
        </mxCell>

        <mxCell id="sorting" value="SortingAlgorithm&#xa;────────────────&#xa;- array: Number[]&#xa;- comparisons: Integer&#xa;- swaps: Integer&#xa;────────────────&#xa;+ sort(): void&#xa;+ swap(i: int, j: int): void&#xa;+ compare(i: int, j: int): Boolean&#xa;+ getArray(): Number[]" style="whiteSpace=wrap;html=1;fontSize=10;fillColor=#f8cecc;strokeColor=#b85450;align=left;verticalAlign=top" vertex="1" parent="1">
          <mxGeometry x="380" y="360" width="160" height="130" as="geometry" />
        </mxCell>

        <mxCell id="graph-algo" value="GraphAlgorithm&#xa;────────────────&#xa;- graph: Graph&#xa;- visited: Set&lt;Node&gt;&#xa;- path: List&lt;Node&gt;&#xa;────────────────&#xa;+ findPath(): List&lt;Node&gt;&#xa;+ traverse(): void&#xa;+ markVisited(node: Node): void&#xa;+ resetGraph(): void" style="whiteSpace=wrap;html=1;fontSize=10;fillColor=#f8cecc;strokeColor=#b85450;align=left;verticalAlign=top" vertex="1" parent="1">
          <mxGeometry x="560" y="360" width="160" height="130" as="geometry" />
        </mxCell>

        <!-- SPECIFIC ALGORITHMS -->
        <mxCell id="quicksort" value="QuickSort&#xa;────────────────&#xa;+ partition(low: int, high: int): int&#xa;+ quickSort(low: int, high: int): void&#xa;+ choosePivot(): int" style="whiteSpace=wrap;html=1;fontSize=10;fillColor=#ffeaa7;strokeColor=#fdcb6e;align=left;verticalAlign=top" vertex="1" parent="1">
          <mxGeometry x="300" y="540" width="140" height="80" as="geometry" />
        </mxCell>

        <mxCell id="mergesort" value="MergeSort&#xa;────────────────&#xa;+ merge(left: int, mid: int, right: int): void&#xa;+ mergeSort(left: int, right: int): void" style="whiteSpace=wrap;html=1;fontSize=10;fillColor=#ffeaa7;strokeColor=#fdcb6e;align=left;verticalAlign=top" vertex="1" parent="1">
          <mxGeometry x="460" y="540" width="160" height="80" as="geometry" />
        </mxCell>

        <mxCell id="dijkstra" value="DijkstraAlgorithm&#xa;────────────────&#xa;+ findShortestPath(start: Node, end: Node): Path&#xa;+ relaxEdge(u: Node, v: Node): void&#xa;+ updateDistance(node: Node, dist: int): void" style="whiteSpace=wrap;html=1;fontSize=10;fillColor=#ffeaa7;strokeColor=#fdcb6e;align=left;verticalAlign=top" vertex="1" parent="1">
          <mxGeometry x="640" y="540" width="180" height="80" as="geometry" />
        </mxCell>

        <!-- VISUALIZER HIERARCHY (Top Right) -->
        <mxCell id="visualizer" value="&lt;&lt;abstract&gt;&gt;&#xa;Visualizer&#xa;────────────────&#xa;- canvas: Canvas&#xa;- speed: Integer&#xa;- isPlaying: Boolean&#xa;- currentStep: Integer&#xa;- animationData: List&lt;Step&gt;&#xa;────────────────&#xa;+ play(): void&#xa;+ pause(): void&#xa;+ render(): void&#xa;+ stepForward(): void&#xa;+ stepBackward(): void&#xa;+ reset(): void" style="whiteSpace=wrap;html=1;fontSize=10;fillColor=#ffe6cc;strokeColor=#d79b00;align=left;verticalAlign=top;fontStyle=1" vertex="1" parent="1">
          <mxGeometry x="750" y="120" width="200" height="180" as="geometry" />
        </mxCell>

        <mxCell id="sorting-vis" value="SortingVisualizer&#xa;────────────────&#xa;- bars: Bar[]&#xa;- colors: Map&lt;String, Color&gt;&#xa;────────────────&#xa;+ renderArray(): void&#xa;+ highlightBars(indices: int[]): void&#xa;+ animateSwap(i: int, j: int): void&#xa;+ updateBarColors(): void" style="whiteSpace=wrap;html=1;fontSize=10;fillColor=#dae8fc;strokeColor=#6c8ebf;align=left;verticalAlign=top" vertex="1" parent="1">
          <mxGeometry x="700" y="360" width="160" height="130" as="geometry" />
        </mxCell>

        <mxCell id="graph-vis" value="GraphVisualizer&#xa;────────────────&#xa;- vertices: Vertex[]&#xa;- edges: Edge[]&#xa;────────────────&#xa;+ renderGraph(): void&#xa;+ highlightPath(path: List&lt;Node&gt;): void&#xa;+ animateTraversal(): void&#xa;+ updateNodeColors(): void" style="whiteSpace=wrap;html=1;fontSize=10;fillColor=#dae8fc;strokeColor=#6c8ebf;align=left;verticalAlign=top" vertex="1" parent="1">
          <mxGeometry x="880" y="360" width="160" height="130" as="geometry" />
        </mxCell>

        <!-- DATA STRUCTURES -->
        <mxCell id="datastructure" value="&lt;&lt;abstract&gt;&gt;&#xa;DataStructure&#xa;────────────────&#xa;- size: Integer&#xa;- capacity: Integer&#xa;────────────────&#xa;+ isEmpty(): Boolean&#xa;+ clear(): void&#xa;+ getSize(): Integer" style="whiteSpace=wrap;html=1;fontSize=10;fillColor=#e6f7ff;strokeColor=#1890ff;align=left;verticalAlign=top;fontStyle=1" vertex="1" parent="1">
          <mxGeometry x="1100" y="120" width="160" height="120" as="geometry" />
        </mxCell>

        <mxCell id="stack" value="Stack&lt;T&gt;&#xa;────────────────&#xa;- elements: Array&lt;T&gt;&#xa;- top: Integer&#xa;────────────────&#xa;+ push(item: T): void&#xa;+ pop(): T&#xa;+ peek(): T&#xa;+ size(): Integer" style="whiteSpace=wrap;html=1;fontSize=10;fillColor=#f6ffed;strokeColor=#52c41a;align=left;verticalAlign=top" vertex="1" parent="1">
          <mxGeometry x="1050" y="300" width="120" height="120" as="geometry" />
        </mxCell>

        <mxCell id="queue" value="Queue&lt;T&gt;&#xa;────────────────&#xa;- elements: Array&lt;T&gt;&#xa;- front: Integer&#xa;- rear: Integer&#xa;────────────────&#xa;+ enqueue(item: T): void&#xa;+ dequeue(): T&#xa;+ peek(): T&#xa;+ size(): Integer" style="whiteSpace=wrap;html=1;fontSize=10;fillColor=#f6ffed;strokeColor=#52c41a;align=left;verticalAlign=top" vertex="1" parent="1">
          <mxGeometry x="1190" y="300" width="140" height="130" as="geometry" />
        </mxCell>

        <!-- AI AND LEARNING SYSTEM -->
        <mxCell id="ai-assistant" value="AIAssistant&#xa;────────────────&#xa;- sessionId: String&#xa;- userId: String&#xa;- context: String&#xa;- language: String&#xa;────────────────&#xa;+ generateExplanation(step: Step): String&#xa;+ provideHints(problem: String): List&lt;String&gt;&#xa;+ optimizeCode(code: String): String&#xa;+ answerQuestions(question: String): String" style="whiteSpace=wrap;html=1;fontSize=10;fillColor=#f0f5ff;strokeColor=#1677ff;align=left;verticalAlign=top" vertex="1" parent="1">
          <mxGeometry x="80" y="720" width="200" height="150" as="geometry" />
        </mxCell>

        <mxCell id="lesson" value="Lesson&#xa;────────────────&#xa;- lessonId: String&#xa;- title: String&#xa;- content: String&#xa;- algorithmIds: List&lt;String&gt;&#xa;- difficulty: Level&#xa;- createdBy: String&#xa;────────────────&#xa;+ getContent(): String&#xa;+ addAlgorithm(id: String): void&#xa;+ updateDifficulty(level: Level): void" style="whiteSpace=wrap;html=1;fontSize=10;fillColor=#fff7e6;strokeColor=#d48806;align=left;verticalAlign=top" vertex="1" parent="1">
          <mxGeometry x="320" y="720" width="180" height="150" as="geometry" />
        </mxCell>

        <mxCell id="exercise" value="Exercise&#xa;────────────────&#xa;- exerciseId: String&#xa;- lessonId: String&#xa;- question: String&#xa;- expectedOutput: String&#xa;- testCases: List&lt;TestCase&gt;&#xa;────────────────&#xa;+ validateSolution(solution: String): Boolean&#xa;+ getHint(): String&#xa;+ submitAnswer(answer: String): Result" style="whiteSpace=wrap;html=1;fontSize=10;fillColor=#fff7e6;strokeColor=#d48806;align=left;verticalAlign=top" vertex="1" parent="1">
          <mxGeometry x="530" y="720" width="200" height="150" as="geometry" />
        </mxCell>

        <!-- COMMUNITY AND PROGRESS -->
        <mxCell id="discussion" value="Discussion&#xa;────────────────&#xa;- discussionId: String&#xa;- title: String&#xa;- algorithmId: String&#xa;- authorId: String&#xa;- content: String&#xa;- createdAt: Date&#xa;────────────────&#xa;+ addComment(comment: String): void&#xa;+ upvote(): void&#xa;+ markSolved(): void" style="whiteSpace=wrap;html=1;fontSize=10;fillColor=#f9f0ff;strokeColor=#722ed1;align=left;verticalAlign=top" vertex="1" parent="1">
          <mxGeometry x="760" y="720" width="180" height="150" as="geometry" />
        </mxCell>

        <mxCell id="progress" value="Progress&#xa;────────────────&#xa;- progressId: String&#xa;- userId: String&#xa;- algorithmId: String&#xa;- completedSteps: Integer&#xa;- totalSteps: Integer&#xa;- score: Integer&#xa;- startTime: Date&#xa;────────────────&#xa;+ updateProgress(step: Integer): void&#xa;+ calculateScore(): Integer&#xa;+ getCompletion(): Double" style="whiteSpace=wrap;html=1;fontSize=10;fillColor=#f0f9ff;strokeColor=#1677ff;align=left;verticalAlign=top" vertex="1" parent="1">
          <mxGeometry x="80" y="920" width="180" height="160" as="geometry" />
        </mxCell>

        <mxCell id="performance-tracker" value="PerformanceTracker&#xa;────────────────&#xa;- testId: String&#xa;- algorithmId: String&#xa;- inputSize: Integer&#xa;- executionTime: Long&#xa;- memoryUsage: Long&#xa;- timeComplexity: String&#xa;────────────────&#xa;+ runTest(): TestResult&#xa;+ compareResults(): Comparison&#xa;+ generateReport(): Report" style="whiteSpace=wrap;html=1;fontSize=10;fillColor=#f0f9ff;strokeColor=#1677ff;align=left;verticalAlign=top" vertex="1" parent="1">
          <mxGeometry x="300" y="920" width="180" height="160" as="geometry" />
        </mxCell>

        <!-- UI COMPONENTS -->
        <mxCell id="control-panel" value="ControlPanel&#xa;────────────────&#xa;- playButton: Button&#xa;- pauseButton: Button&#xa;- speedSlider: Slider&#xa;- stepControls: ButtonGroup&#xa;────────────────&#xa;+ onPlay(): void&#xa;+ onPause(): void&#xa;+ onSpeedChange(speed: Integer): void&#xa;+ onStep(): void" style="whiteSpace=wrap;html=1;fontSize=10;fillColor=#fff1f0;strokeColor=#ff4d4f;align=left;verticalAlign=top" vertex="1" parent="1">
          <mxGeometry x="1100" y="720" width="160" height="150" as="geometry" />
        </mxCell>

        <mxCell id="input-panel" value="InputPanel&#xa;────────────────&#xa;- inputField: TextField&#xa;- generateButton: Button&#xa;- validator: InputValidator&#xa;────────────────&#xa;+ validateInput(input: String): Boolean&#xa;+ generateRandom(size: Integer): Array&#xa;+ clearInput(): void" style="whiteSpace=wrap;html=1;fontSize=10;fillColor=#fff1f0;strokeColor=#ff4d4f;align=left;verticalAlign=top" vertex="1" parent="1">
          <mxGeometry x="1100" y="920" width="160" height="120" as="geometry" />
        </mxCell>

        <!-- INHERITANCE RELATIONSHIPS -->
        <!-- User inheritance -->
        <mxCell id="inherit-student" style="endArrow=block;endFill=0;html=1;rounded=0;exitX=0.5;exitY=0;exitDx=0;exitDy=0;entryX=0.25;entryY=1;entryDx=0;entryDy=0" edge="1" parent="1" source="student" target="user">
          <mxGeometry width="50" height="50" relative="1" as="geometry">
            <mxPoint x="400" y="400" as="sourcePoint" />
            <mxPoint x="450" y="350" as="targetPoint" />
          </mxGeometry>
        </mxCell>

        <mxCell id="inherit-teacher" style="endArrow=block;endFill=0;html=1;rounded=0;exitX=0.5;exitY=0;exitDx=0;exitDy=0;entryX=0.75;entryY=1;entryDx=0;entryDy=0" edge="1" parent="1" source="teacher" target="user">
          <mxGeometry width="50" height="50" relative="1" as="geometry">
            <mxPoint x="400" y="400" as="sourcePoint" />
            <mxPoint x="450" y="350" as="targetPoint" />
          </mxGeometry>
        </mxCell>

        <!-- Algorithm inheritance -->
        <mxCell id="inherit-sorting" style="endArrow=block;endFill=0;html=1;rounded=0;exitX=0.5;exitY=0;exitDx=0;exitDy=0;entryX=0.25;entryY=1;entryDx=0;entryDy=0" edge="1" parent="1" source="sorting" target="algorithm">
          <mxGeometry width="50" height="50" relative="1" as="geometry">
            <mxPoint x="400" y="400" as="sourcePoint" />
            <mxPoint x="450" y="350" as="targetPoint" />
          </mxGeometry>
        </mxCell>

        <mxCell id="inherit-graph" style="endArrow=block;endFill=0;html=1;rounded=0;exitX=0.5;exitY=0;exitDx=0;exitDy=0;entryX=0.75;entryY=1;entryDx=0;entryDy=0" edge="1" parent="1" source="graph-algo" target="algorithm">
          <mxGeometry width="50" height="50" relative="1" as="geometry">
            <mxPoint x="400" y="400" as="sourcePoint" />
            <mxPoint x="450" y="350" as="targetPoint" />
          </mxGeometry>
        </mxCell>

        <!-- Specific algorithm inheritance -->
        <mxCell id="inherit-quicksort" style="endArrow=block;endFill=0;html=1;rounded=0;exitX=0.5;exitY=0;exitDx=0;exitDy=0;entryX=0.25;entryY=1;entryDx=0;entryDy=0" edge="1" parent="1" source="quicksort" target="sorting">
          <mxGeometry width="50" height="50" relative="1" as="geometry">
            <mxPoint x="400" y="500" as="sourcePoint" />
            <mxPoint x="450" y="450" as="targetPoint" />
          </mxGeometry>
        </mxCell>

        <mxCell id="inherit-mergesort" style="endArrow=block;endFill=0;html=1;rounded=0;exitX=0.5;exitY=0;exitDx=0;exitDy=0;entryX=0.75;entryY=1;entryDx=0;entryDy=0" edge="1" parent="1" source="mergesort" target="sorting">
          <mxGeometry width="50" height="50" relative="1" as="geometry">
            <mxPoint x="400" y="500" as="sourcePoint" />
            <mxPoint x="450" y="450" as="targetPoint" />
          </mxGeometry>
        </mxCell>

        <mxCell id="inherit-dijkstra" style="endArrow=block;endFill=0;html=1;rounded=0;exitX=0.5;exitY=0;exitDx=0;exitDy=0;entryX=0.5;entryY=1;entryDx=0;entryDy=0" edge="1" parent="1" source="dijkstra" target="graph-algo">
          <mxGeometry width="50" height="50" relative="1" as="geometry">
            <mxPoint x="400" y="500" as="sourcePoint" />
            <mxPoint x="450" y="450" as="targetPoint" />
          </mxGeometry>
        </mxCell>

        <!-- Visualizer inheritance -->
        <mxCell id="inherit-sorting-vis" style="endArrow=block;endFill=0;html=1;rounded=0;exitX=0.5;exitY=0;exitDx=0;exitDy=0;entryX=0.25;entryY=1;entryDx=0;entryDy=0" edge="1" parent="1" source="sorting-vis" target="visualizer">
          <mxGeometry width="50" height="50" relative="1" as="geometry">
            <mxPoint x="700" y="400" as="sourcePoint" />
            <mxPoint x="750" y="350" as="targetPoint" />
          </mxGeometry>
        </mxCell>

        <mxCell id="inherit-graph-vis" style="endArrow=block;endFill=0;html=1;rounded=0;exitX=0.5;exitY=0;exitDx=0;exitDy=0;entryX=0.75;entryY=1;entryDx=0;entryDy=0" edge="1" parent="1" source="graph-vis" target="visualizer">
          <mxGeometry width="50" height="50" relative="1" as="geometry">
            <mxPoint x="700" y="400" as="sourcePoint" />
            <mxPoint x="750" y="350" as="targetPoint" />
          </mxGeometry>
        </mxCell>

        <!-- Data structure inheritance -->
        <mxCell id="inherit-stack" style="endArrow=block;endFill=0;html=1;rounded=0;exitX=0.5;exitY=0;exitDx=0;exitDy=0;entryX=0.25;entryY=1;entryDx=0;entryDy=0" edge="1" parent="1" source="stack" target="datastructure">
          <mxGeometry width="50" height="50" relative="1" as="geometry">
            <mxPoint x="1000" y="300" as="sourcePoint" />
            <mxPoint x="1050" y="250" as="targetPoint" />
          </mxGeometry>
        </mxCell>

        <mxCell id="inherit-queue" style="endArrow=block;endFill=0;html=1;rounded=0;exitX=0.5;exitY=0;exitDx=0;exitDy=0;entryX=0.75;entryY=1;entryDx=0;entryDy=0" edge="1" parent="1" source="queue" target="datastructure">
          <mxGeometry width="50" height="50" relative="1" as="geometry">
            <mxPoint x="1200" y="300" as="sourcePoint" />
            <mxPoint x="1250" y="250" as="targetPoint" />
          </mxGeometry>
        </mxCell>

        <!-- ASSOCIATION RELATIONSHIPS -->
        <!-- Visualizer uses Algorithm -->
        <mxCell id="assoc-vis-sort" style="endArrow=none;html=1;rounded=0;exitX=1;exitY=0.5;exitDx=0;exitDy=0;entryX=0;entryY=0.5;entryDx=0;entryDy=0" edge="1" parent="1" source="sorting" target="sorting-vis">
          <mxGeometry width="50" height="50" relative="1" as="geometry">
            <mxPoint x="600" y="400" as="sourcePoint" />
            <mxPoint x="650" y="350" as="targetPoint" />
          </mxGeometry>
        </mxCell>

        <mxCell id="assoc-vis-graph" style="endArrow=none;html=1;rounded=0;exitX=1;exitY=0.5;exitDx=0;exitDy=0;entryX=0;entryY=0.5;entryDx=0;entryDy=0" edge="1" parent="1" source="graph-algo" target="graph-vis">
          <mxGeometry width="50" height="50" relative="1" as="geometry">
            <mxPoint x="750" y="400" as="sourcePoint" />
            <mxPoint x="800" y="350" as="targetPoint" />
          </mxGeometry>
        </mxCell>

        <!-- Student Progress -->
        <mxCell id="assoc-student-progress" style="endArrow=none;html=1;rounded=0;exitX=0.5;exitY=1;exitDx=0;exitDy=0;entryX=0.5;entryY=0;entryDx=0;entryDy=0" edge="1" parent="1" source="student" target="progress">
          <mxGeometry width="50" height="50" relative="1" as="geometry">
            <mxPoint x="150" y="500" as="sourcePoint" />
            <mxPoint x="200" y="450" as="targetPoint" />
          </mxGeometry>
        </mxCell>

        <!-- Teacher Lesson -->
        <mxCell id="assoc-teacher-lesson" style="endArrow=none;html=1;rounded=0;exitX=0.5;exitY=1;exitDx=0;exitDy=0;entryX=0.5;entryY=0;entryDx=0;entryDy=0" edge="1" parent="1" source="teacher" target="lesson">
          <mxGeometry width="50" height="50" relative="1" as="geometry">
            <mxPoint x="350" y="500" as="sourcePoint" />
            <mxPoint x="400" y="450" as="targetPoint" />
          </mxGeometry>
        </mxCell>

        <!-- UI Control Associations -->
        <mxCell id="assoc-control-vis" style="endArrow=none;html=1;rounded=0;exitX=0;exitY=0.5;exitDx=0;exitDy=0;entryX=1;entryY=0.5;entryDx=0;entryDy=0" edge="1" parent="1" source="control-panel" target="visualizer">
          <mxGeometry width="50" height="50" relative="1" as="geometry">
            <mxPoint x="1000" y="800" as="sourcePoint" />
            <mxPoint x="1050" y="750" as="targetPoint" />
            <Array as="points">
              <mxPoint x="1000" y="795" />
              <mxPoint x="1000" y="210" />
            </Array>
          </mxGeometry>
        </mxCell>

        <!-- AI Student Association -->
        <mxCell id="assoc-ai-student" style="endArrow=none;html=1;rounded=0;exitX=0.5;exitY=0;exitDx=0;exitDy=0;entryX=0.5;entryY=1;entryDx=0;entryDy=0" edge="1" parent="1" source="ai-assistant" target="student">
          <mxGeometry width="50" height="50" relative="1" as="geometry">
            <mxPoint x="150" y="650" as="sourcePoint" />
            <mxPoint x="200" y="600" as="targetPoint" />
            <Array as="points">
              <mxPoint x="180" y="650" />
              <mxPoint x="120" y="650" />
            </Array>
          </mxGeometry>
        </mxCell>

        <!-- Performance Algorithm Association -->
        <mxCell id="assoc-perf-algo" style="endArrow=none;html=1;rounded=0;exitX=0.5;exitY=0;exitDx=0;exitDy=0;entryX=0.5;entryY=1;entryDx=0;entryDy=0" edge="1" parent="1" source="performance-tracker" target="algorithm">
          <mxGeometry width="50" height="50" relative="1" as="geometry">
            <mxPoint x="450" y="800" as="sourcePoint" />
            <mxPoint x="500" y="750" as="targetPoint" />
            <Array as="points">
              <mxPoint x="390" y="800" />
              <mxPoint x="560" y="800" />
            </Array>
          </mxGeometry>
        </mxCell>

        <!-- Multiplicity labels -->
        <mxCell id="mult1" value="1" style="text;html=1;align=center;verticalAlign=middle;whiteSpace=wrap;rounded=0;fontSize=8" vertex="1" parent="1">
          <mxGeometry x="540" y="400" width="20" height="20" as="geometry" />
        </mxCell>

        <mxCell id="mult2" value="1" style="text;html=1;align=center;verticalAlign=middle;whiteSpace=wrap;rounded=0;fontSize=8" vertex="1" parent="1">
          <mxGeometry x="680" y="400" width="20" height="20" as="geometry" />
        </mxCell>

        <mxCell id="mult3" value="1" style="text;html=1;align=center;verticalAlign=middle;whiteSpace=wrap;rounded=0;fontSize=8" vertex="1" parent="1">
          <mxGeometry x="100" y="500" width="20" height="20" as="geometry" />
        </mxCell>

        <mxCell id="mult4" value="1..*" style="text;html=1;align=center;verticalAlign=middle;whiteSpace=wrap;rounded=0;fontSize=8" vertex="1" parent="1">
          <mxGeometry x="150" y="900" width="30" height="20" as="geometry" />
        </mxCell>

        <mxCell id="mult5" value="creates" style="text;html=1;align=center;verticalAlign=middle;whiteSpace=wrap;rounded=0;fontSize=8" vertex="1" parent="1">
          <mxGeometry x="320" y="550" width="40" height="20" as="geometry" />
        </mxCell>

        <mxCell id="mult6" value="tracks" style="text;html=1;align=center;verticalAlign=middle;whiteSpace=wrap;rounded=0;fontSize=8" vertex="1" parent="1">
          <mxGeometry x="80" y="650" width="40" height="20" as="geometry" />
        </mxCell>

        <mxCell id="mult7" value="uses" style="text;html=1;align=center;verticalAlign=middle;whiteSpace=wrap;rounded=0;fontSize=8" vertex="1" parent="1">
          <mxGeometry x="600" y="420" width="30" height="20" as="geometry" />
        </mxCell>

        <mxCell id="mult8" value="controls" style="text;html=1;align=center;verticalAlign=middle;whiteSpace=wrap;rounded=0;fontSize=8" vertex="1" parent="1">
          <mxGeometry x="980" y="400" width="50" height="20" as="geometry" />
        </mxCell>

      </root>
    </mxGraphModel>
  </diagram>
</mxfile>
